<svg width="640" height="480" xmlns="http://www.w3.org/2000/svg" xmlns:svg="http://www.w3.org/2000/svg">
  <!-- Created with SVG-edit - http://svg-edit.googlecode.com/ -->
  <g>
    <title>Layer 1</title>
    <path stroke="#000000" id="svg_1" d="m612.36003,76.75557l0,0c0,-28.44574 -30.24256,-51.50556 -67.54865,-51.50556l-30.70395,0l0,0l-147.3789,0l-276.33535,0c-17.91506,0 -35.09631,5.42645 -47.76417,15.08563c-12.66778,9.65917 -19.78452,22.75982 -19.78452,36.41993l0,128.76391l0,0l0,77.25832l0,0c0,28.44575 30.24254,51.50556 67.54867,51.50556l276.33535,0l192.53234,130.96667l-45.15345,-130.96667l30.70395,0c37.30608,0 67.54865,-23.05981 67.54865,-51.50556l0,0l0,-77.25832l0,0l0.00002,-128.76391z" fill="#aad4ff"/>
  </g>
</svg>
