<?xml version="1.0" standalone="no"?><!DOCTYPE svg PUBLIC "-//W3C//DTD SVG 1.1//EN" "http://www.w3.org/Graphics/SVG/1.1/DTD/svg11.dtd"><svg t="1531814871219" class="icon" style="" viewBox="0 0 1024 1024" version="1.1" xmlns="http://www.w3.org/2000/svg" p-id="3840" xmlns:xlink="http://www.w3.org/1999/xlink" width="200" height="200"><defs><style type="text/css"></style></defs><path d="M946.1682 82.812575c-57.950261-57.947064-152.22693-57.947064-210.177191 0l-32.777847 32.777847-0.028772 0.031969-58.113303 58.110106-0.031969 0.028772-52.285348 52.288545c-0.09271 0.09271-0.169436 0.195011-0.262146 0.290918a19.25175 19.25175 0 0 0-0.907921 1.007025c-0.204602 0.239768-0.409204 0.479535-0.601017 0.725697a21.291374 21.291374 0 0 0-0.687335 0.936692c-0.214193 0.306903-0.428385 0.610608-0.626593 0.927102-0.169436 0.26854-0.322887 0.540277-0.479535 0.815211a20.341894 20.341894 0 0 0-0.613805 1.128506c-0.118285 0.239768-0.22698 0.485929-0.338872 0.728894-0.188617 0.415597-0.374038 0.834392-0.53708 1.25958-0.095907 0.246162-0.17583 0.498717-0.262146 0.748075a25.562436 25.562436 0 0 0-0.406007 1.272368c-0.079923 0.290918-0.143861 0.585033-0.214192 0.875951a20.786263 20.786263 0 0 0-0.252555 1.17646c-0.063938 0.351659-0.105498 0.706516-0.153452 1.058175-0.044757 0.342069-0.09271 0.684137-0.121482 1.026206-0.035166 0.40281-0.044757 0.80562-0.057544 1.211626-0.009591 0.303706-0.022378 0.607412-0.019182 0.911118 0.003197 0.421991 0.031969 0.843982 0.060741 1.265973 0.019181 0.300509 0.038363 0.597821 0.070332 0.89833 0.044757 0.396416 0.105498 0.792832 0.172633 1.192445a18.500478 18.500478 0 0 0 0.434779 2.03323c0.102301 0.393219 0.210996 0.783241 0.332478 1.170067a26.764472 26.764472 0 0 0 0.808816 2.135531c0.05115 0.118285 0.086316 0.236571 0.140664 0.354856l36.323212 79.302376c0.04156 0.089513 0.099104 0.166239 0.140664 0.255752 0.421991 0.891936 0.888739 1.767887 1.435409 2.608673 0.012788 0.022378 0.025575 0.047954 0.04156 0.067135a22.320777 22.320777 0 0 0 2.336936 2.944348c0.191814 0.207799 0.364447 0.425188 0.569049 0.626593l0.031969 0.028772 57.959851 57.959851 0.028772 0.031969c0.057544 0.057544 0.124679 0.108695 0.182224 0.166239 0.326084 0.31969 0.674547 0.623396 1.023009 0.923905 0.233374 0.201405 0.460354 0.409204 0.700121 0.597821 0.290918 0.230177 0.594624 0.44437 0.89833 0.661759 0.326084 0.233374 0.652168 0.469945 0.987843 0.684137 0.233374 0.147058 0.476339 0.284524 0.716106 0.425188 0.425188 0.249358 0.850376 0.492323 1.285155 0.71291 0.067135 0.031969 0.124679 0.073529 0.191815 0.105497l84.180849 41.204883c0.124679 0.060741 0.255752 0.102301 0.383629 0.159845a21.940345 21.940345 0 0 0 3.9226 1.403441c0.300509 0.076726 0.597821 0.156648 0.898329 0.220586 0.460354 0.095907 0.923905 0.169436 1.387456 0.236571 0.322887 0.047954 0.642578 0.105498 0.965465 0.140664 0.533883 0.054347 1.067766 0.073529 1.601648 0.089513 0.220586 0.006394 0.441173 0.038363 0.661759 0.038363 0.060741 0 0.121482-0.012788 0.182224-0.012788a22.691617 22.691617 0 0 0 3.305598-0.284524c0.783241-0.121482 1.556892-0.281327 2.327345-0.489126 0.118285-0.031969 0.242965-0.054347 0.36125-0.089514 0.895133-0.255752 1.774281-0.575443 2.637445-0.943086 0.163042-0.070332 0.31969-0.150254 0.479535-0.223783 0.693728-0.316493 1.374668-0.67135 2.042821-1.064569 0.198208-0.115089 0.396416-0.22698 0.591427-0.348462 0.770454-0.485929 1.521726-1.003828 2.241029-1.592058 0.118285-0.095907 0.223783-0.210996 0.342069-0.3101 0.45396-0.386825 0.904724-0.776847 1.333109-1.205232l52.285348-52.288546 0.028772-0.031969L913.355187 325.796385l0.031969-0.028772 32.777847-32.777847c28.068808-28.068808 43.525834-65.392651 43.525834-105.088595s-15.453829-77.022984-43.522637-105.088596z m-31.64934 31.646143c19.616197 19.616197 30.418532 45.696531 30.418532 73.439256s-10.802335 53.823059-30.421729 73.442452l-16.953177 16.953177-146.878511-146.881708 16.956373-16.953177c19.616197-19.616197 45.696531-30.418532 73.439256-30.418532s53.819862 10.802335 73.439256 30.418532z m-75.130418 222.005732l-46.821841-46.821841-0.044757-0.047954-0.047953-0.044756-57.911898-57.911898-0.057544-0.063938-0.063938-0.057545-41.93058-41.930579 26.524704-26.524705 146.881709 146.881709-26.527902 26.521507z m-56.808966 56.812163l-41.684418-20.402635 35.802117-35.802116 31.041928 31.041928-25.159627 25.162823z m-121.718885-172.041335l26.169848 26.169848-35.191508 35.188312-16.441672-35.894827 25.463332-25.463333z m57.815991 57.812794l26.371253 26.371253-42.128788 42.128788-26.37445-26.37445 42.131985-42.125591zM680.905173 399.641647l-63.704686-63.704686a22.378321 22.378321 0 0 0-30.287459-1.253186L208.930399 654.7609a22.362336 22.362336 0 0 0-7.595842 13.29592l-25.150036 146.763423a22.391109 22.391109 0 0 0 6.230764 19.606606 22.391109 22.391109 0 0 0 19.606606 6.230764l146.763423-25.150036a22.362336 22.362336 0 0 0 13.29592-7.595841l320.073928-377.985827a22.378321 22.378321 0 0 0-1.249989-30.284262zM333.194018 772.771378l-107.553407 18.430146 18.430145-107.553408 356.045481-301.499922 34.571309 34.571309-301.493528 356.051875zM791.601136 467.713303l-76.620174-39.961288a22.371927 22.371927 0 0 0-27.618045 5.607368l-314.59124 381.662265a22.365533 22.365533 0 0 0-4.980774 16.649471l14.462789 133.20216a22.375124 22.375124 0 0 0 30.907658 18.215953l150.113777-63.010958a22.352746 22.352746 0 0 0 10.946196-9.846461l226.634848-411.89218a22.371927 22.371927 0 0 0-9.255035-30.62633z m-252.83027 414.114027l-115.261141 48.378733-10.204514-93.992145 297.059423-360.390072 40.252206 20.990865-211.845974 385.012619zM185.915894 647.510324a22.378321 22.378321 0 0 0 14.232612-5.111848l381.662265-314.594436a22.378321 22.378321 0 0 0 6.307489-26.150667l-30.370578-70.223171a22.371927 22.371927 0 0 0-30.904461-10.949393l-421.479692 220.237845a22.36873 22.36873 0 0 0-10.268452 11.173176l-63.014155 150.113777a22.375124 22.375124 0 0 0 18.215953 30.907658l133.20216 14.465986c0.80562 0.089513 1.614436 0.131073 2.416859 0.131073z m-100.951803-55.849895l48.276432-115.008585 392.988892-205.349868 14.130312 32.672349-361.403491 297.893815-93.992145-10.207711z" fill="#009FE8" p-id="3841"></path></svg>