<!DOCTYPE svg PUBLIC "-//W3C//DTD SVG 20010904//EN" "http://www.w3.org/TR/2001/REC-SVG-20010904/DTD/svg10.dtd">
<svg version="1.0" xmlns="http://www.w3.org/2000/svg" width="200px" height="200px" viewBox="0 0 2000 2000" preserveAspectRatio="xMidYMid meet">
<g id="layer101" fill="#35495e" stroke="none">
 <path d="M502 1013 c-270 -467 -494 -856 -497 -865 -7 -17 15 -18 381 -18 l389 0 110 195 c61 107 112 194 115 194 3 0 55 -87 115 -194 l110 -195 389 0 c366 0 388 1 381 18 -12 31 -989 1712 -995 1712 -3 0 -227 -381 -498 -847z"/>
 </g>
<g id="layer102" fill="#41b883" stroke="none">
 <path d="M502 1013 c-270 -467 -494 -856 -497 -865 -7 -17 6 -18 192 -18 l198 0 26 43 c14 23 148 255 299 515 151 259 277 472 280 472 3 0 129 -213 280 -472 151 -260 285 -492 299 -515 l26 -43 198 0 c186 0 199 1 192 18 -12 31 -989 1712 -995 1712 -3 0 -227 -381 -498 -847z"/>
 </g>

</svg>